# xmcd CD database file
#
# Track frame offsets:
#	150
#	18801
#	32008
#	49764
#	63058
#	84149
#	96075
#	113920
#	124862
#	138019
#
# Disc length: 2074 seconds
#
# Revision: 0
# Processed by: cddbd v1.5.1PL0 Copyright (c) Steve Scherf et al.
# Submitted via: CDex 1.51
#
DISCID=6e08180a
DTITLE=Variés - Radio Country Vol. 6
DYEAR=1900
DGENRE=Country
TTITLE0=Georges Hamel - Marcel a chanté
TTITLE1=Marcel Martel - Simple passager
TTITLE2=Dani Daraîche - J'avais seize ans
TTITLE3=Roger Miron - Ton coeur est ma fortune
TTITLE4=Julie Daraîche - La voie de ton coeur
TTITLE5=Denis Côté - Demain j'aurai 20 ans
TTITLE6=MMartel, PBrunelle, MKing - Medley
TTITLE7=Paul Daraîche - Quand revient le printemps
TTITLE8=Louise Guindon - Belle rivière
TTITLE9=Normand Grenier - Hommage à Marcel Martel
EXTD=
EXTT0=
EXTT1=
EXTT2=
EXTT3=
EXTT4=
EXTT5=
EXTT6=
EXTT7=
EXTT8=
EXTT9=
PLAYORDER=
